<svg width="1428" height="1088" viewBox="0 0 1428 1088" fill="none" xmlns="http://www.w3.org/2000/svg">
<g filter="url(#filter0_bd_203_4)">
<rect x="4" width="1420" height="1080" fill="#E8E8E8"/>
<rect x="4.5" y="0.5" width="1419" height="1079" stroke="#EB1313"/>
</g>
<g opacity="0.1" filter="url(#filter1_d_203_4)">
<path d="M301.691 791.501L281.221 771.298L301.691 751.095H314.507L293.948 771.298L314.507 791.501H301.691ZM393.032 753.587C396.888 753.587 400.33 754.388 403.356 755.99C406.441 757.592 408.844 759.966 410.565 763.11C412.345 766.255 413.235 770.052 413.235 774.502V803.427H403.178V776.015C403.178 771.625 402.08 768.272 399.885 765.958C397.689 763.585 394.693 762.398 390.896 762.398C387.098 762.398 384.072 763.585 381.818 765.958C379.622 768.272 378.525 771.625 378.525 776.015V803.427H368.468V776.015C368.468 771.625 367.37 768.272 365.175 765.958C362.979 763.585 359.983 762.398 356.186 762.398C352.388 762.398 349.362 763.585 347.108 765.958C344.912 768.272 343.815 771.625 343.815 776.015V803.427H333.669V754.388H343.815V759.995C345.476 757.978 347.582 756.406 350.134 755.278C352.685 754.151 355.414 753.587 358.322 753.587C362.238 753.587 365.738 754.418 368.824 756.079C371.909 757.741 374.282 760.144 375.944 763.288C377.427 760.322 379.741 757.978 382.886 756.257C386.03 754.477 389.412 753.587 393.032 753.587ZM422.763 778.685C422.763 773.761 423.772 769.4 425.789 765.602C427.866 761.805 430.655 758.868 434.155 756.791C437.715 754.655 441.631 753.587 445.903 753.587C449.76 753.587 453.112 754.359 455.96 755.901C458.868 757.385 461.182 759.254 462.902 761.508V754.388H473.137V803.427H462.902V796.129C461.182 798.443 458.838 800.372 455.871 801.914C452.905 803.457 449.523 804.228 445.725 804.228C441.513 804.228 437.656 803.16 434.155 801.024C430.655 798.829 427.866 795.803 425.789 791.946C423.772 788.03 422.763 783.61 422.763 778.685ZM462.902 778.863C462.902 775.481 462.19 772.544 460.766 770.052C459.402 767.56 457.592 765.662 455.337 764.356C453.083 763.051 450.65 762.398 448.039 762.398C445.429 762.398 442.996 763.051 440.741 764.356C438.487 765.602 436.647 767.471 435.223 769.963C433.859 772.396 433.176 775.303 433.176 778.685C433.176 782.067 433.859 785.034 435.223 787.585C436.647 790.137 438.487 792.095 440.741 793.459C443.055 794.765 445.488 795.417 448.039 795.417C450.65 795.417 453.083 794.765 455.337 793.459C457.592 792.154 459.402 790.255 460.766 787.763C462.19 785.212 462.902 782.245 462.902 778.863ZM504.264 804.228C500.407 804.228 496.936 803.546 493.851 802.181C490.825 800.757 488.422 798.859 486.642 796.485C484.862 794.053 483.912 791.353 483.794 788.386H494.296C494.474 790.463 495.453 792.213 497.233 793.637C499.072 795.002 501.356 795.684 504.086 795.684C506.934 795.684 509.129 795.15 510.672 794.082C512.274 792.955 513.075 791.531 513.075 789.81C513.075 787.971 512.185 786.606 510.405 785.716C508.684 784.826 505.925 783.847 502.128 782.779C498.449 781.771 495.453 780.792 493.139 779.842C490.825 778.893 488.807 777.439 487.087 775.481C485.425 773.523 484.595 770.942 484.595 767.738C484.595 765.128 485.366 762.754 486.909 760.618C488.451 758.423 490.647 756.702 493.495 755.456C496.402 754.21 499.725 753.587 503.463 753.587C509.04 753.587 513.52 755.011 516.902 757.859C520.343 760.648 522.182 764.475 522.42 769.34H512.274C512.096 767.145 511.206 765.395 509.604 764.089C508.002 762.784 505.836 762.131 503.107 762.131C500.437 762.131 498.39 762.636 496.966 763.644C495.542 764.653 494.83 765.988 494.83 767.649C494.83 768.955 495.304 770.052 496.254 770.942C497.203 771.832 498.36 772.544 499.725 773.078C501.089 773.553 503.107 774.176 505.777 774.947C509.337 775.897 512.244 776.876 514.499 777.884C516.813 778.834 518.8 780.258 520.462 782.156C522.123 784.055 522.983 786.577 523.043 789.721C523.043 792.51 522.271 795.002 520.729 797.197C519.186 799.393 516.991 801.113 514.143 802.359C511.354 803.605 508.061 804.228 504.264 804.228ZM530.624 778.685C530.624 773.761 531.632 769.4 533.65 765.602C535.726 761.805 538.515 758.868 542.016 756.791C545.576 754.655 549.492 753.587 553.764 753.587C557.62 753.587 560.973 754.359 563.821 755.901C566.728 757.385 569.042 759.254 570.763 761.508V754.388H580.998V803.427H570.763V796.129C569.042 798.443 566.698 800.372 563.732 801.914C560.765 803.457 557.383 804.228 553.586 804.228C549.373 804.228 545.516 803.16 542.016 801.024C538.515 798.829 535.726 795.803 533.65 791.946C531.632 788.03 530.624 783.61 530.624 778.685ZM570.763 778.863C570.763 775.481 570.051 772.544 568.627 770.052C567.262 767.56 565.452 765.662 563.198 764.356C560.943 763.051 558.51 762.398 555.9 762.398C553.289 762.398 550.856 763.051 548.602 764.356C546.347 765.602 544.508 767.471 543.084 769.963C541.719 772.396 541.037 775.303 541.037 778.685C541.037 782.067 541.719 785.034 543.084 787.585C544.508 790.137 546.347 792.095 548.602 793.459C550.916 794.765 553.348 795.417 555.9 795.417C558.51 795.417 560.943 794.765 563.198 793.459C565.452 792.154 567.262 790.255 568.627 787.763C570.051 785.212 570.763 782.245 570.763 778.863ZM638.735 754.388V803.427H628.589V797.642C626.987 799.66 624.881 801.262 622.27 802.448C619.719 803.576 616.989 804.139 614.082 804.139C610.225 804.139 606.754 803.338 603.669 801.736C600.643 800.134 598.24 797.761 596.46 794.616C594.739 791.472 593.879 787.674 593.879 783.224V754.388H603.936V781.711C603.936 786.102 605.034 789.484 607.229 791.857C609.424 794.171 612.421 795.328 616.218 795.328C620.015 795.328 623.012 794.171 625.207 791.857C627.462 789.484 628.589 786.102 628.589 781.711V754.388H638.735ZM648.74 778.685C648.74 773.761 649.748 769.4 651.766 765.602C653.842 761.805 656.631 758.868 660.132 756.791C663.692 754.655 667.637 753.587 671.969 753.587C675.173 753.587 678.317 754.299 681.403 755.723C684.547 757.088 687.039 758.927 688.879 761.241V737.567H699.114V803.427H688.879V796.04C687.217 798.414 684.903 800.372 681.937 801.914C679.029 803.457 675.677 804.228 671.88 804.228C667.608 804.228 663.692 803.16 660.132 801.024C656.631 798.829 653.842 795.803 651.766 791.946C649.748 788.03 648.74 783.61 648.74 778.685ZM688.879 778.863C688.879 775.481 688.167 772.544 686.743 770.052C685.378 767.56 683.568 765.662 681.314 764.356C679.059 763.051 676.626 762.398 674.016 762.398C671.405 762.398 668.972 763.051 666.718 764.356C664.463 765.602 662.624 767.471 661.2 769.963C659.835 772.396 659.153 775.303 659.153 778.685C659.153 782.067 659.835 785.034 661.2 787.585C662.624 790.137 664.463 792.095 666.718 793.459C669.032 794.765 671.464 795.417 674.016 795.417C676.626 795.417 679.059 794.765 681.314 793.459C683.568 792.154 685.378 790.255 686.743 787.763C688.167 785.212 688.879 782.245 688.879 778.863ZM749.731 790.789H723.832L719.382 803.427H708.791L730.952 741.483H742.7L764.861 803.427H754.181L749.731 790.789ZM746.883 782.512L736.826 753.765L726.68 782.512H746.883ZM799.862 753.587C803.6 753.587 806.922 754.388 809.83 755.99C812.796 757.592 815.11 759.966 816.772 763.11C818.492 766.255 819.353 770.052 819.353 774.502V803.427H809.296V776.015C809.296 771.625 808.198 768.272 806.003 765.958C803.807 763.585 800.811 762.398 797.014 762.398C793.216 762.398 790.19 763.585 787.936 765.958C785.74 768.272 784.643 771.625 784.643 776.015V803.427H774.497V737.567H784.643V760.084C786.363 758.008 788.529 756.406 791.14 755.278C793.81 754.151 796.717 753.587 799.862 753.587ZM891.658 753.587C895.514 753.587 898.956 754.388 901.982 755.99C905.067 757.592 907.47 759.966 909.191 763.11C910.971 766.255 911.861 770.052 911.861 774.502V803.427H901.804V776.015C901.804 771.625 900.706 768.272 898.511 765.958C896.315 763.585 893.319 762.398 889.522 762.398C885.724 762.398 882.698 763.585 880.444 765.958C878.248 768.272 877.151 771.625 877.151 776.015V803.427H867.094V776.015C867.094 771.625 865.996 768.272 863.801 765.958C861.605 763.585 858.609 762.398 854.812 762.398C851.014 762.398 847.988 763.585 845.734 765.958C843.538 768.272 842.441 771.625 842.441 776.015V803.427H832.295V754.388H842.441V759.995C844.102 757.978 846.208 756.406 848.76 755.278C851.311 754.151 854.04 753.587 856.948 753.587C860.864 753.587 864.364 754.418 867.45 756.079C870.535 757.741 872.908 760.144 874.57 763.288C876.053 760.322 878.367 757.978 881.512 756.257C884.656 754.477 888.038 753.587 891.658 753.587ZM946.042 804.228C941.414 804.228 937.231 803.19 933.493 801.113C929.755 798.977 926.818 796.011 924.682 792.213C922.546 788.357 921.478 783.907 921.478 778.863C921.478 773.879 922.576 769.459 924.771 765.602C926.967 761.746 929.963 758.779 933.76 756.702C937.558 754.626 941.8 753.587 946.487 753.587C951.175 753.587 955.417 754.626 959.214 756.702C963.012 758.779 966.008 761.746 968.203 765.602C970.399 769.459 971.496 773.879 971.496 778.863C971.496 783.847 970.369 788.268 968.114 792.124C965.86 795.981 962.774 798.977 958.858 801.113C955.002 803.19 950.73 804.228 946.042 804.228ZM946.042 795.417C948.653 795.417 951.086 794.794 953.34 793.548C955.654 792.302 957.523 790.433 958.947 787.941C960.371 785.449 961.083 782.423 961.083 778.863C961.083 775.303 960.401 772.307 959.036 769.874C957.672 767.382 955.862 765.513 953.607 764.267C951.353 763.021 948.92 762.398 946.309 762.398C943.699 762.398 941.266 763.021 939.011 764.267C936.816 765.513 935.066 767.382 933.76 769.874C932.455 772.307 931.802 775.303 931.802 778.863C931.802 784.144 933.137 788.238 935.807 791.145C938.537 793.993 941.948 795.417 946.042 795.417ZM978.144 778.685C978.144 773.761 979.153 769.4 981.17 765.602C983.247 761.805 986.035 758.868 989.536 756.791C993.096 754.655 997.042 753.587 1001.37 753.587C1004.58 753.587 1007.72 754.299 1010.81 755.723C1013.95 757.088 1016.44 758.927 1018.28 761.241V737.567H1028.52V803.427H1018.28V796.04C1016.62 798.414 1014.31 800.372 1011.34 801.914C1008.43 803.457 1005.08 804.228 1001.28 804.228C997.012 804.228 993.096 803.16 989.536 801.024C986.035 798.829 983.247 795.803 981.17 791.946C979.153 788.03 978.144 783.61 978.144 778.685ZM1018.28 778.863C1018.28 775.481 1017.57 772.544 1016.15 770.052C1014.78 767.56 1012.97 765.662 1010.72 764.356C1008.46 763.051 1006.03 762.398 1003.42 762.398C1000.81 762.398 998.377 763.051 996.122 764.356C993.867 765.602 992.028 767.471 990.604 769.963C989.239 772.396 988.557 775.303 988.557 778.685C988.557 782.067 989.239 785.034 990.604 787.585C992.028 790.137 993.867 792.095 996.122 793.459C998.436 794.765 1000.87 795.417 1003.42 795.417C1006.03 795.417 1008.46 794.765 1010.72 793.459C1012.97 792.154 1014.78 790.255 1016.15 787.763C1017.57 785.212 1018.28 782.245 1018.28 778.863ZM1097.89 719.411L1073.69 819.002H1063.72L1087.84 719.411H1097.89ZM1113.97 751.095H1126.79L1147.26 771.298L1126.79 791.501H1113.97L1134.53 771.298L1113.97 751.095Z" fill="#1F1111"/>
<path d="M301.691 791.501L299.934 793.281L300.665 794.001H301.691V791.501ZM281.221 771.298L279.464 769.519L277.662 771.298L279.464 773.078L281.221 771.298ZM301.691 751.095V748.595H300.665L299.934 749.316L301.691 751.095ZM314.507 751.095L316.259 752.879L320.617 748.595H314.507V751.095ZM293.948 771.298L292.195 769.515L290.381 771.298L292.195 773.082L293.948 771.298ZM314.507 791.501V794.001H320.617L316.259 789.718L314.507 791.501ZM303.447 789.722L282.977 769.519L279.464 773.078L299.934 793.281L303.447 789.722ZM282.977 773.078L303.447 752.875L299.934 749.316L279.464 769.519L282.977 773.078ZM301.691 753.595H314.507V748.595H301.691V753.595ZM312.754 749.312L292.195 769.515L295.7 773.082L316.259 752.879L312.754 749.312ZM292.195 773.082L312.754 793.285L316.259 789.718L295.7 769.515L292.195 773.082ZM314.507 789.001H301.691V794.001H314.507V789.001ZM403.356 755.99L402.186 758.2L402.195 758.205L402.204 758.209L403.356 755.99ZM410.565 763.11L408.372 764.31L408.38 764.326L408.389 764.342L410.565 763.11ZM413.235 803.427V805.927H415.735V803.427H413.235ZM403.178 803.427H400.678V805.927H403.178V803.427ZM399.885 765.958L398.049 767.656L398.06 767.668L398.071 767.679L399.885 765.958ZM381.818 765.958L380.005 764.237L380.004 764.238L381.818 765.958ZM378.525 803.427V805.927H381.025V803.427H378.525ZM368.468 803.427H365.968V805.927H368.468V803.427ZM365.175 765.958L363.339 767.656L363.35 767.668L363.361 767.679L365.175 765.958ZM347.108 765.958L345.295 764.237L345.294 764.238L347.108 765.958ZM343.815 803.427V805.927H346.315V803.427H343.815ZM333.669 803.427H331.169V805.927H333.669V803.427ZM333.669 754.388V751.888H331.169V754.388H333.669ZM343.815 754.388H346.315V751.888H343.815V754.388ZM343.815 759.995H341.315V766.964L345.744 761.585L343.815 759.995ZM350.134 755.278L351.144 757.565L351.144 757.565L350.134 755.278ZM368.824 756.079L370.009 753.878L370.009 753.878L368.824 756.079ZM375.944 763.288L373.733 764.456L376.005 768.756L378.18 764.406L375.944 763.288ZM382.886 756.257L384.086 758.451L384.101 758.442L384.117 758.433L382.886 756.257ZM393.032 756.087C396.533 756.087 399.564 756.812 402.186 758.2L404.525 753.781C401.096 751.965 397.244 751.087 393.032 751.087V756.087ZM402.204 758.209C404.834 759.575 406.881 761.587 408.372 764.31L412.758 761.91C410.807 758.345 408.048 755.61 404.508 753.772L402.204 758.209ZM408.389 764.342C409.912 767.033 410.735 770.385 410.735 774.502H415.735C415.735 769.72 414.777 765.477 412.74 761.879L408.389 764.342ZM410.735 774.502V803.427H415.735V774.502H410.735ZM413.235 800.927H403.178V805.927H413.235V800.927ZM405.678 803.427V776.015H400.678V803.427H405.678ZM405.678 776.015C405.678 771.229 404.478 767.167 401.698 764.238L398.071 767.679C399.682 769.377 400.678 772.021 400.678 776.015H405.678ZM401.72 764.261C398.968 761.286 395.257 759.898 390.896 759.898V764.898C394.129 764.898 396.41 765.884 398.049 767.656L401.72 764.261ZM390.896 759.898C386.533 759.898 382.808 761.286 380.005 764.237L383.63 767.68C385.336 765.884 387.664 764.898 390.896 764.898V759.898ZM380.004 764.238C377.225 767.167 376.025 771.229 376.025 776.015H381.025C381.025 772.021 382.02 769.377 383.631 767.679L380.004 764.238ZM376.025 776.015V803.427H381.025V776.015H376.025ZM378.525 800.927H368.468V805.927H378.525V800.927ZM370.968 803.427V776.015H365.968V803.427H370.968ZM370.968 776.015C370.968 771.229 369.768 767.167 366.988 764.238L363.361 767.679C364.972 769.377 365.968 772.021 365.968 776.015H370.968ZM367.01 764.261C364.258 761.286 360.547 759.898 356.186 759.898V764.898C359.419 764.898 361.7 765.884 363.339 767.656L367.01 764.261ZM356.186 759.898C351.823 759.898 348.098 761.286 345.295 764.237L348.92 767.68C350.626 765.884 352.954 764.898 356.186 764.898V759.898ZM345.294 764.238C342.515 767.167 341.315 771.229 341.315 776.015H346.315C346.315 772.021 347.31 769.377 348.921 767.679L345.294 764.238ZM341.315 776.015V803.427H346.315V776.015H341.315ZM343.815 800.927H333.669V805.927H343.815V800.927ZM336.169 803.427V754.388H331.169V803.427H336.169ZM333.669 756.888H343.815V751.888H333.669V756.888ZM341.315 754.388V759.995H346.315V754.388H341.315ZM345.744 761.585C347.141 759.888 348.925 758.546 351.144 757.565L349.123 752.992C346.24 754.266 343.811 756.068 341.885 758.406L345.744 761.585ZM351.144 757.565C353.364 756.584 355.747 756.087 358.322 756.087V751.087C355.081 751.087 352.006 751.718 349.123 752.992L351.144 757.565ZM358.322 756.087C361.873 756.087 364.959 756.838 367.638 758.281L370.009 753.878C366.518 751.999 362.602 751.087 358.322 751.087V756.087ZM367.638 758.281C370.28 759.703 372.3 761.743 373.733 764.456L378.154 762.121C376.265 758.544 373.538 755.778 370.009 753.878L367.638 758.281ZM378.18 764.406C379.417 761.933 381.35 759.948 384.086 758.451L381.686 754.064C378.132 756.009 375.437 758.711 373.708 762.17L378.18 764.406ZM384.117 758.433C386.886 756.866 389.843 756.087 393.032 756.087V751.087C388.981 751.087 385.175 752.089 381.654 754.082L384.117 758.433ZM425.789 765.602L423.596 764.403L423.589 764.416L423.581 764.43L425.789 765.602ZM434.155 756.791L435.431 758.942L435.441 758.935L434.155 756.791ZM455.96 755.901L454.77 758.1L454.797 758.114L454.824 758.128L455.96 755.901ZM462.902 761.508L460.915 763.025L465.402 768.905V761.508H462.902ZM462.902 754.388V751.888H460.402V754.388H462.902ZM473.137 754.388H475.637V751.888H473.137V754.388ZM473.137 803.427V805.927H475.637V803.427H473.137ZM462.902 803.427H460.402V805.927H462.902V803.427ZM462.902 796.129H465.402V788.578L460.896 794.638L462.902 796.129ZM455.871 801.914L454.718 799.696L454.718 799.696L455.871 801.914ZM434.155 801.024L432.827 803.142L432.84 803.151L432.853 803.159L434.155 801.024ZM425.789 791.946L423.567 793.091L423.577 793.112L423.588 793.132L425.789 791.946ZM460.766 770.052L458.573 771.253L458.584 771.273L458.596 771.293L460.766 770.052ZM455.337 764.356L454.085 766.52L454.085 766.52L455.337 764.356ZM440.741 764.356L441.95 766.545L441.972 766.532L441.994 766.52L440.741 764.356ZM435.223 769.963L433.053 768.723L433.048 768.732L433.043 768.74L435.223 769.963ZM435.223 787.585L433.019 788.765L433.029 788.784L433.04 788.804L435.223 787.585ZM440.741 793.459L439.447 795.598L439.48 795.618L439.513 795.637L440.741 793.459ZM455.337 793.459L456.59 795.623L456.59 795.623L455.337 793.459ZM460.766 787.763L458.583 786.545L458.578 786.554L458.573 786.563L460.766 787.763ZM425.263 778.685C425.263 774.11 426.198 770.162 427.997 766.775L423.581 764.43C421.346 768.637 420.263 773.412 420.263 778.685H425.263ZM427.983 766.802C429.858 763.372 432.34 760.775 435.431 758.942L432.88 754.641C428.969 756.961 425.873 760.238 423.596 764.403L427.983 766.802ZM435.441 758.935C438.601 757.039 442.071 756.087 445.903 756.087V751.087C441.192 751.087 436.829 752.272 432.869 754.648L435.441 758.935ZM445.903 756.087C449.423 756.087 452.351 756.79 454.77 758.1L457.151 753.703C453.874 751.928 450.097 751.087 445.903 751.087V756.087ZM454.824 758.128C457.448 759.467 459.453 761.11 460.915 763.025L464.89 759.992C462.91 757.398 460.287 755.302 457.096 753.675L454.824 758.128ZM465.402 761.508V754.388H460.402V761.508H465.402ZM462.902 756.888H473.137V751.888H462.902V756.888ZM470.637 754.388V803.427H475.637V754.388H470.637ZM473.137 800.927H462.902V805.927H473.137V800.927ZM465.402 803.427V796.129H460.402V803.427H465.402ZM460.896 794.638C459.434 796.603 457.402 798.3 454.718 799.696L457.025 804.132C460.273 802.443 462.929 800.284 464.908 797.621L460.896 794.638ZM454.718 799.696C452.153 801.03 449.176 801.728 445.725 801.728V806.728C449.869 806.728 453.656 805.884 457.025 804.132L454.718 799.696ZM445.725 801.728C441.959 801.728 438.555 800.78 435.457 798.89L432.853 803.159C436.757 805.541 441.066 806.728 445.725 806.728V801.728ZM435.483 798.906C432.372 796.955 429.875 794.26 427.99 790.761L423.588 793.132C425.857 797.346 428.937 800.703 432.827 803.142L435.483 798.906ZM428.012 790.802C426.197 787.28 425.263 783.259 425.263 778.685H420.263C420.263 783.961 421.346 788.781 423.567 793.091L428.012 790.802ZM465.402 778.863C465.402 775.124 464.612 771.744 462.937 768.812L458.596 771.293C459.768 773.345 460.402 775.838 460.402 778.863H465.402ZM462.959 768.852C461.395 765.996 459.275 763.748 456.59 762.193L454.085 766.52C455.908 767.576 457.408 769.124 458.573 771.253L462.959 768.852ZM456.59 762.193C453.954 760.667 451.089 759.898 448.039 759.898V764.898C450.211 764.898 452.211 765.436 454.085 766.52L456.59 762.193ZM448.039 759.898C444.99 759.898 442.125 760.667 439.489 762.193L441.994 766.52C443.867 765.436 445.867 764.898 448.039 764.898V759.898ZM439.532 762.168C436.831 763.661 434.677 765.88 433.053 768.723L437.394 771.204C438.617 769.063 440.142 767.544 441.95 766.545L439.532 762.168ZM433.043 768.74C431.428 771.618 430.676 774.966 430.676 778.685H435.676C435.676 775.641 436.289 773.174 437.404 771.187L433.043 768.74ZM430.676 778.685C430.676 782.409 431.43 785.794 433.019 788.765L437.428 786.406C436.287 784.275 435.676 781.726 435.676 778.685H430.676ZM433.04 788.804C434.652 791.692 436.782 793.985 439.447 795.598L442.036 791.321C440.191 790.204 438.642 788.582 437.406 786.367L433.04 788.804ZM439.513 795.637C442.186 797.145 445.039 797.917 448.039 797.917V792.917C445.936 792.917 443.925 792.385 441.97 791.282L439.513 795.637ZM448.039 797.917C451.089 797.917 453.954 797.149 456.59 795.623L454.085 791.296C452.211 792.38 450.211 792.917 448.039 792.917V797.917ZM456.59 795.623C459.275 794.068 461.395 791.819 462.959 788.964L458.573 786.563C457.408 788.691 455.908 790.24 454.085 791.296L456.59 795.623ZM462.949 788.982C464.612 786.003 465.402 782.604 465.402 778.863H460.402C460.402 781.887 459.769 784.421 458.583 786.545L462.949 788.982ZM493.851 802.181L492.786 804.443L492.813 804.456L492.839 804.468L493.851 802.181ZM486.642 796.485L484.624 797.962L484.633 797.974L484.642 797.985L486.642 796.485ZM483.794 788.386V785.886H481.192L481.296 788.486L483.794 788.386ZM494.296 788.386L496.786 788.173L496.59 785.886H494.296V788.386ZM497.233 793.637L495.671 795.59L495.706 795.618L495.743 795.645L497.233 793.637ZM510.672 794.082L512.095 796.138L512.102 796.132L512.11 796.127L510.672 794.082ZM510.405 785.716L509.256 787.937L509.271 787.945L509.287 787.952L510.405 785.716ZM502.128 782.779L502.804 780.373L502.797 780.371L502.789 780.368L502.128 782.779ZM493.139 779.842L492.19 782.155L492.19 782.155L493.139 779.842ZM487.087 775.481L485.18 777.099L485.194 777.115L485.209 777.132L487.087 775.481ZM486.909 760.618L488.935 762.082L488.945 762.069L488.954 762.056L486.909 760.618ZM493.495 755.456L492.51 753.159L492.501 753.162L492.493 753.166L493.495 755.456ZM516.902 757.859L515.291 759.772L515.309 759.787L515.328 759.802L516.902 757.859ZM522.42 769.34V771.84H525.045L524.917 769.219L522.42 769.34ZM512.274 769.34L509.782 769.542L509.968 771.84H512.274V769.34ZM509.604 764.089L511.183 762.151L511.183 762.151L509.604 764.089ZM496.966 763.644L495.521 761.604L495.521 761.604L496.966 763.644ZM496.254 770.942L494.544 772.766L494.544 772.766L496.254 770.942ZM499.725 773.078L498.814 775.407L498.858 775.424L498.903 775.44L499.725 773.078ZM505.777 774.947L505.083 777.349L505.108 777.356L505.132 777.363L505.777 774.947ZM514.499 777.884L513.478 780.166L513.513 780.182L513.55 780.197L514.499 777.884ZM520.462 782.156L518.58 783.803L518.58 783.803L520.462 782.156ZM523.043 789.721H525.543V789.698L525.542 789.674L523.043 789.721ZM520.729 797.197L518.683 795.76L518.683 795.76L520.729 797.197ZM514.143 802.359L513.141 800.069L513.132 800.073L513.123 800.077L514.143 802.359ZM504.264 801.728C500.706 801.728 497.586 801.1 494.862 799.895L492.839 804.468C496.286 805.992 500.108 806.728 504.264 806.728V801.728ZM494.915 799.919C492.211 798.647 490.147 796.993 488.642 794.985L484.642 797.985C486.696 800.725 489.438 802.868 492.786 804.443L494.915 799.919ZM488.659 795.009C487.168 792.971 486.39 790.749 486.292 788.287L481.296 788.486C481.434 791.957 482.555 795.135 484.624 797.962L488.659 795.009ZM483.794 790.886H494.296V785.886H483.794V790.886ZM491.805 788.6C492.047 791.427 493.412 793.782 495.671 795.59L498.794 791.685C497.494 790.645 496.9 789.499 496.786 788.173L491.805 788.6ZM495.743 795.645C498.091 797.387 500.926 798.184 504.086 798.184V793.184C501.787 793.184 500.053 792.617 498.722 791.63L495.743 795.645ZM504.086 798.184C507.195 798.184 509.969 797.61 512.095 796.138L509.249 792.027C508.289 792.691 506.672 793.184 504.086 793.184V798.184ZM512.11 796.127C514.271 794.606 515.575 792.467 515.575 789.81H510.575C510.575 790.595 510.276 791.304 509.233 792.038L512.11 796.127ZM515.575 789.81C515.575 788.47 515.244 787.181 514.501 786.042C513.765 784.914 512.722 784.08 511.523 783.48L509.287 787.952C509.867 788.243 510.159 788.537 510.313 788.773C510.46 788.998 510.575 789.311 510.575 789.81H515.575ZM511.553 783.496C509.596 782.484 506.634 781.45 502.804 780.373L501.451 785.186C505.216 786.245 507.772 787.169 509.256 787.937L511.553 783.496ZM502.789 780.368C499.163 779.374 496.273 778.426 494.087 777.53L492.19 782.155C494.633 783.158 497.735 784.167 501.466 785.19L502.789 780.368ZM494.087 777.53C492.145 776.733 490.442 775.512 488.964 773.831L485.209 777.132C487.173 779.367 489.504 781.053 492.19 782.155L494.087 777.53ZM488.993 773.864C487.803 772.461 487.095 770.501 487.095 767.738H482.095C482.095 771.383 483.048 774.586 485.18 777.099L488.993 773.864ZM487.095 767.738C487.095 765.658 487.697 763.796 488.935 762.082L484.882 759.155C483.035 761.712 482.095 764.597 482.095 767.738H487.095ZM488.954 762.056C490.194 760.291 492 758.839 494.497 757.747L492.493 753.166C489.293 754.566 486.708 756.555 484.863 759.181L488.954 762.056ZM494.479 757.754C497.024 756.664 500.003 756.087 503.463 756.087V751.087C499.447 751.087 495.78 751.757 492.51 753.159L494.479 757.754ZM503.463 756.087C508.609 756.087 512.468 757.394 515.291 759.772L518.512 755.947C514.571 752.629 509.471 751.087 503.463 751.087V756.087ZM515.328 759.802C518.157 762.095 519.716 765.228 519.923 769.462L524.917 769.219C524.648 763.722 522.528 759.201 518.476 755.917L515.328 759.802ZM522.42 766.84H512.274V771.84H522.42V766.84ZM514.765 769.138C514.536 766.314 513.35 763.917 511.183 762.151L508.024 766.028C509.061 766.872 509.655 767.976 509.782 769.542L514.765 769.138ZM511.183 762.151C509.009 760.38 506.225 759.631 503.107 759.631V764.631C505.446 764.631 506.994 765.188 508.024 766.028L511.183 762.151ZM503.107 759.631C500.176 759.631 497.537 760.176 495.521 761.604L498.411 765.684C499.242 765.096 500.697 764.631 503.107 764.631V759.631ZM495.521 761.604C493.474 763.054 492.33 765.13 492.33 767.649H497.33C497.33 766.846 497.609 766.252 498.411 765.684L495.521 761.604ZM492.33 767.649C492.33 769.643 493.088 771.402 494.544 772.766L497.963 769.119C497.52 768.703 497.33 768.266 497.33 767.649H492.33ZM494.544 772.766C495.752 773.899 497.19 774.771 498.814 775.407L500.636 770.75C499.53 770.318 498.654 769.766 497.963 769.119L494.544 772.766ZM498.903 775.44C500.332 775.937 502.401 776.575 505.083 777.349L506.47 772.546C503.812 771.778 501.846 771.169 500.546 770.717L498.903 775.44ZM505.132 777.363C508.62 778.293 511.388 779.232 513.478 780.166L515.519 775.602C513.099 774.52 510.054 773.501 506.421 772.532L505.132 777.363ZM513.55 780.197C515.502 780.998 517.172 782.193 518.58 783.803L522.343 780.51C520.429 778.323 518.123 776.669 515.447 775.572L513.55 780.197ZM518.58 783.803C519.765 785.157 520.492 787.063 520.543 789.769L525.542 789.674C525.475 786.09 524.481 782.953 522.343 780.51L518.58 783.803ZM520.543 789.721C520.543 792.017 519.918 794.003 518.683 795.76L522.774 798.635C524.625 796.001 525.543 793.003 525.543 789.721H520.543ZM518.683 795.76C517.443 797.525 515.637 798.977 513.141 800.069L515.145 804.65C518.344 803.25 520.929 801.261 522.774 798.635L518.683 795.76ZM513.123 800.077C510.723 801.149 507.793 801.728 504.264 801.728V806.728C508.329 806.728 511.985 806.062 515.162 804.642L513.123 800.077ZM533.65 765.602L531.456 764.403L531.449 764.416L531.442 764.43L533.65 765.602ZM542.016 756.791L543.291 758.942L543.302 758.935L542.016 756.791ZM563.821 755.901L562.63 758.1L562.657 758.114L562.684 758.128L563.821 755.901ZM570.763 761.508L568.775 763.025L573.263 768.905V761.508H570.763ZM570.763 754.388V751.888H568.263V754.388H570.763ZM580.998 754.388H583.498V751.888H580.998V754.388ZM580.998 803.427V805.927H583.498V803.427H580.998ZM570.763 803.427H568.263V805.927H570.763V803.427ZM570.763 796.129H573.263V788.578L568.756 794.638L570.763 796.129ZM563.732 801.914L562.578 799.696L562.578 799.696L563.732 801.914ZM542.016 801.024L540.687 803.142L540.7 803.151L540.713 803.159L542.016 801.024ZM533.65 791.946L531.427 793.091L531.438 793.112L531.448 793.132L533.65 791.946ZM568.627 770.052L566.434 771.253L566.445 771.273L566.456 771.293L568.627 770.052ZM563.198 764.356L561.945 766.52L561.945 766.52L563.198 764.356ZM548.602 764.356L549.811 766.545L549.833 766.532L549.854 766.52L548.602 764.356ZM543.084 769.963L540.913 768.723L540.908 768.732L540.903 768.74L543.084 769.963ZM543.084 787.585L540.879 788.765L540.89 788.784L540.901 788.804L543.084 787.585ZM548.602 793.459L547.307 795.598L547.34 795.618L547.373 795.637L548.602 793.459ZM563.198 793.459L564.45 795.623L564.45 795.623L563.198 793.459ZM568.627 787.763L566.444 786.545L566.439 786.554L566.434 786.563L568.627 787.763ZM533.124 778.685C533.124 774.11 534.058 770.162 535.857 766.775L531.442 764.43C529.206 768.637 528.124 773.412 528.124 778.685H533.124ZM535.843 766.802C537.719 763.372 540.201 760.775 543.291 758.942L540.74 754.641C536.829 756.961 533.734 760.238 531.456 764.403L535.843 766.802ZM543.302 758.935C546.462 757.039 549.931 756.087 553.764 756.087V751.087C549.052 751.087 544.69 752.272 540.729 754.648L543.302 758.935ZM553.764 756.087C557.284 756.087 560.211 756.79 562.63 758.1L565.011 753.703C561.734 751.928 557.957 751.087 553.764 751.087V756.087ZM562.684 758.128C565.309 759.467 567.313 761.11 568.775 763.025L572.75 759.992C570.77 757.398 568.147 755.302 564.957 753.675L562.684 758.128ZM573.263 761.508V754.388H568.263V761.508H573.263ZM570.763 756.888H580.998V751.888H570.763V756.888ZM578.498 754.388V803.427H583.498V754.388H578.498ZM580.998 800.927H570.763V805.927H580.998V800.927ZM573.263 803.427V796.129H568.263V803.427H573.263ZM568.756 794.638C567.295 796.603 565.263 798.3 562.578 799.696L564.885 804.132C568.134 802.443 570.789 800.284 572.769 797.621L568.756 794.638ZM562.578 799.696C560.014 801.03 557.036 801.728 553.586 801.728V806.728C557.729 806.728 561.516 805.884 564.885 804.132L562.578 799.696ZM553.586 801.728C549.819 801.728 546.415 800.78 543.318 798.89L540.713 803.159C544.617 805.541 548.927 806.728 553.586 806.728V801.728ZM543.344 798.906C540.232 796.955 537.735 794.26 535.851 790.761L531.448 793.132C533.718 797.346 536.798 800.703 540.687 803.142L543.344 798.906ZM535.872 790.802C534.058 787.28 533.124 783.259 533.124 778.685H528.124C528.124 783.961 529.207 788.781 531.427 793.091L535.872 790.802ZM573.263 778.863C573.263 775.124 572.473 771.744 570.797 768.812L566.456 771.293C567.628 773.345 568.263 775.838 568.263 778.863H573.263ZM570.819 768.852C569.256 765.996 567.136 763.748 564.45 762.193L561.945 766.52C563.769 767.576 565.268 769.124 566.434 771.253L570.819 768.852ZM564.45 762.193C561.814 760.667 558.949 759.898 555.9 759.898V764.898C558.071 764.898 560.072 765.436 561.945 766.52L564.45 762.193ZM555.9 759.898C552.85 759.898 549.985 760.667 547.349 762.193L549.854 766.52C551.727 765.436 553.728 764.898 555.9 764.898V759.898ZM547.392 762.168C544.692 763.661 542.538 765.88 540.913 768.723L545.254 771.204C546.477 769.063 548.002 767.544 549.811 766.545L547.392 762.168ZM540.903 768.74C539.289 771.618 538.537 774.966 538.537 778.685H543.537C543.537 775.641 544.149 773.174 545.264 771.187L540.903 768.74ZM538.537 778.685C538.537 782.409 539.29 785.794 540.879 788.765L545.288 786.406C544.148 784.275 543.537 781.726 543.537 778.685H538.537ZM540.901 788.804C542.512 791.692 544.642 793.985 547.307 795.598L549.896 791.321C548.052 790.204 546.503 788.582 545.267 786.367L540.901 788.804ZM547.373 795.637C550.046 797.145 552.9 797.917 555.9 797.917V792.917C553.797 792.917 551.785 792.385 549.83 791.282L547.373 795.637ZM555.9 797.917C558.949 797.917 561.814 797.149 564.45 795.623L561.945 791.296C560.072 792.38 558.071 792.917 555.9 792.917V797.917ZM564.45 795.623C567.136 794.068 569.256 791.819 570.819 788.964L566.434 786.563C565.268 788.691 563.769 790.24 561.945 791.296L564.45 795.623ZM570.81 788.982C572.472 786.003 573.263 782.604 573.263 778.863H568.263C568.263 781.887 567.629 784.421 566.444 786.545L570.81 788.982ZM638.735 754.388H641.235V751.888H638.735V754.388ZM638.735 803.427V805.927H641.235V803.427H638.735ZM628.589 803.427H626.089V805.927H628.589V803.427ZM628.589 797.642H631.089V790.474L626.631 796.088L628.589 797.642ZM622.27 802.448L623.28 804.735L623.292 804.73L623.304 804.724L622.27 802.448ZM603.669 801.736L602.499 803.946L602.508 803.951L602.517 803.955L603.669 801.736ZM596.46 794.616L594.267 795.816L594.275 795.832L594.284 795.848L596.46 794.616ZM593.879 754.388V751.888H591.379V754.388H593.879ZM603.936 754.388H606.436V751.888H603.936V754.388ZM607.229 791.857L605.394 793.555L605.404 793.567L605.415 793.578L607.229 791.857ZM625.207 791.857L623.394 790.136L623.393 790.137L625.207 791.857ZM628.589 754.388V751.888H626.089V754.388H628.589ZM636.235 754.388V803.427H641.235V754.388H636.235ZM638.735 800.927H628.589V805.927H638.735V800.927ZM631.089 803.427V797.642H626.089V803.427H631.089ZM626.631 796.088C625.302 797.761 623.527 799.131 621.235 800.173L623.304 804.724C626.234 803.393 628.672 801.558 630.547 799.197L626.631 796.088ZM621.26 800.162C619.04 801.142 616.656 801.639 614.082 801.639V806.639C617.322 806.639 620.397 806.009 623.28 804.735L621.26 800.162ZM614.082 801.639C610.582 801.639 607.513 800.915 604.821 799.518L602.517 803.955C605.996 805.761 609.869 806.639 614.082 806.639V801.639ZM604.839 799.527C602.258 798.161 600.194 796.138 598.636 793.385L594.284 795.848C596.286 799.384 599.028 802.108 602.499 803.946L604.839 799.527ZM598.653 793.416C597.177 790.718 596.379 787.355 596.379 783.224H591.379C591.379 787.994 592.302 792.225 594.267 795.816L598.653 793.416ZM596.379 783.224V754.388H591.379V783.224H596.379ZM593.879 756.888H603.936V751.888H593.879V756.888ZM601.436 754.388V781.711H606.436V754.388H601.436ZM601.436 781.711C601.436 786.503 602.638 790.576 605.394 793.555L609.064 790.16C607.43 788.393 606.436 785.701 606.436 781.711H601.436ZM605.415 793.578C608.172 796.484 611.876 797.828 616.218 797.828V792.828C612.965 792.828 610.677 791.859 609.043 790.137L605.415 793.578ZM616.218 797.828C620.56 797.828 624.264 796.484 627.021 793.578L623.393 790.137C621.759 791.859 619.471 792.828 616.218 792.828V797.828ZM627.019 793.579C629.849 790.601 631.089 786.519 631.089 781.711H626.089C626.089 785.685 625.075 788.367 623.394 790.136L627.019 793.579ZM631.089 781.711V754.388H626.089V781.711H631.089ZM628.589 756.888H638.735V751.888H628.589V756.888ZM651.766 765.602L649.572 764.403L649.565 764.416L649.558 764.43L651.766 765.602ZM660.132 756.791L661.407 758.942L661.418 758.935L660.132 756.791ZM681.403 755.723L680.355 757.993L680.381 758.005L680.408 758.017L681.403 755.723ZM688.879 761.241L686.922 762.797L691.379 768.404V761.241H688.879ZM688.879 737.567V735.067H686.379V737.567H688.879ZM699.114 737.567H701.614V735.067H699.114V737.567ZM699.114 803.427V805.927H701.614V803.427H699.114ZM688.879 803.427H686.379V805.927H688.879V803.427ZM688.879 796.04H691.379V788.11L686.831 794.607L688.879 796.04ZM681.937 801.914L680.783 799.696L680.774 799.701L680.765 799.706L681.937 801.914ZM660.132 801.024L658.804 803.142L658.824 803.155L658.846 803.168L660.132 801.024ZM651.766 791.946L649.543 793.091L649.554 793.112L649.565 793.132L651.766 791.946ZM686.743 770.052L684.55 771.253L684.561 771.273L684.572 771.293L686.743 770.052ZM681.314 764.356L680.061 766.52L680.061 766.52L681.314 764.356ZM666.718 764.356L667.927 766.545L667.949 766.532L667.97 766.52L666.718 764.356ZM661.2 769.963L659.029 768.723L659.024 768.732L659.019 768.74L661.2 769.963ZM661.2 787.585L658.995 788.765L659.006 788.784L659.017 788.804L661.2 787.585ZM666.718 793.459L665.423 795.598L665.456 795.618L665.489 795.637L666.718 793.459ZM681.314 793.459L682.566 795.623L682.566 795.623L681.314 793.459ZM686.743 787.763L684.56 786.545L684.555 786.554L684.55 786.563L686.743 787.763ZM651.24 778.685C651.24 774.11 652.174 770.162 653.974 766.775L649.558 764.43C647.323 768.637 646.24 773.412 646.24 778.685H651.24ZM653.959 766.802C655.835 763.372 658.317 760.775 661.407 758.942L658.856 754.641C654.945 756.961 651.85 760.238 649.572 764.403L653.959 766.802ZM661.418 758.935C664.572 757.043 668.07 756.087 671.969 756.087V751.087C667.205 751.087 662.811 752.268 658.846 754.648L661.418 758.935ZM671.969 756.087C674.789 756.087 677.578 756.712 680.355 757.993L682.45 753.454C679.057 751.887 675.556 751.087 671.969 751.087V756.087ZM680.408 758.017C683.236 759.244 685.376 760.852 686.922 762.797L690.836 759.686C688.703 757.003 685.859 754.932 682.398 753.43L680.408 758.017ZM691.379 761.241V737.567H686.379V761.241H691.379ZM688.879 740.067H699.114V735.067H688.879V740.067ZM696.614 737.567V803.427H701.614V737.567H696.614ZM699.114 800.927H688.879V805.927H699.114V800.927ZM691.379 803.427V796.04H686.379V803.427H691.379ZM686.831 794.607C685.433 796.603 683.448 798.311 680.783 799.696L683.09 804.132C686.359 802.433 689.001 800.225 690.927 797.474L686.831 794.607ZM680.765 799.706C678.271 801.03 675.332 801.728 671.88 801.728V806.728C676.022 806.728 679.788 805.885 683.109 804.123L680.765 799.706ZM671.88 801.728C668.047 801.728 664.578 800.777 661.418 798.881L658.846 803.168C662.806 805.544 667.168 806.728 671.88 806.728V801.728ZM661.46 798.906C658.348 796.955 655.851 794.26 653.967 790.761L649.565 793.132C651.834 797.346 654.914 800.703 658.804 803.142L661.46 798.906ZM653.988 790.802C652.174 787.28 651.24 783.259 651.24 778.685H646.24C646.24 783.961 647.323 788.781 649.543 793.091L653.988 790.802ZM691.379 778.863C691.379 775.124 690.589 771.744 688.913 768.812L684.572 771.293C685.745 773.345 686.379 775.838 686.379 778.863H691.379ZM688.936 768.852C687.372 765.996 685.252 763.748 682.566 762.193L680.061 766.52C681.885 767.576 683.384 769.124 684.55 771.253L688.936 768.852ZM682.566 762.193C679.93 760.667 677.065 759.898 674.016 759.898V764.898C676.188 764.898 678.188 765.436 680.061 766.52L682.566 762.193ZM674.016 759.898C670.966 759.898 668.101 760.667 665.465 762.193L667.97 766.52C669.844 765.436 671.844 764.898 674.016 764.898V759.898ZM665.509 762.168C662.808 763.661 660.654 765.88 659.029 768.723L663.37 771.204C664.594 769.063 666.118 767.544 667.927 766.545L665.509 762.168ZM659.019 768.74C657.405 771.618 656.653 774.966 656.653 778.685H661.653C661.653 775.641 662.265 773.174 663.38 771.187L659.019 768.74ZM656.653 778.685C656.653 782.409 657.406 785.794 658.995 788.765L663.404 786.406C662.264 784.275 661.653 781.726 661.653 778.685H656.653ZM659.017 788.804C660.629 791.692 662.758 793.985 665.423 795.598L668.012 791.321C666.168 790.204 664.619 788.582 663.383 786.367L659.017 788.804ZM665.489 795.637C668.162 797.145 671.016 797.917 674.016 797.917V792.917C671.913 792.917 669.901 792.385 667.946 791.282L665.489 795.637ZM674.016 797.917C677.065 797.917 679.93 797.149 682.566 795.623L680.061 791.296C678.188 792.38 676.188 792.917 674.016 792.917V797.917ZM682.566 795.623C685.252 794.068 687.372 791.819 688.936 788.964L684.55 786.563C683.384 788.691 681.885 790.24 680.061 791.296L682.566 795.623ZM688.926 788.982C690.588 786.003 691.379 782.604 691.379 778.863H686.379C686.379 781.887 685.745 784.421 684.56 786.545L688.926 788.982ZM749.731 790.789L752.089 789.959L751.501 788.289H749.731V790.789ZM723.832 790.789V788.289H722.062L721.474 789.959L723.832 790.789ZM719.382 803.427V805.927H721.152L721.74 804.258L719.382 803.427ZM708.791 803.427L706.437 802.585L705.242 805.927H708.791V803.427ZM730.952 741.483V738.983H729.191L728.598 740.641L730.952 741.483ZM742.7 741.483L745.054 740.641L744.461 738.983H742.7V741.483ZM764.861 803.427V805.927H768.411L767.215 802.585L764.861 803.427ZM754.181 803.427L751.823 804.258L752.411 805.927H754.181V803.427ZM746.883 782.512V785.012H750.406L749.243 781.687L746.883 782.512ZM736.826 753.765L739.186 752.94L736.837 746.224L734.469 752.933L736.826 753.765ZM726.68 782.512L724.323 781.68L723.147 785.012H726.68V782.512ZM749.731 788.289H723.832V793.289H749.731V788.289ZM721.474 789.959L717.024 802.597L721.74 804.258L726.19 791.62L721.474 789.959ZM719.382 800.927H708.791V805.927H719.382V800.927ZM711.145 804.27L733.306 742.326L728.598 740.641L706.437 802.585L711.145 804.27ZM730.952 743.983H742.7V738.983H730.952V743.983ZM740.346 742.326L762.507 804.27L767.215 802.585L745.054 740.641L740.346 742.326ZM764.861 800.927H754.181V805.927H764.861V800.927ZM756.539 802.597L752.089 789.959L747.373 791.62L751.823 804.258L756.539 802.597ZM749.243 781.687L739.186 752.94L734.466 754.591L744.523 783.338L749.243 781.687ZM734.469 752.933L724.323 781.68L729.038 783.344L739.184 754.597L734.469 752.933ZM726.68 785.012H746.883V780.012H726.68V785.012ZM809.83 755.99L808.623 758.18L808.633 758.185L808.642 758.19L809.83 755.99ZM816.772 763.11L814.561 764.278L814.57 764.294L814.579 764.31L816.772 763.11ZM819.353 803.427V805.927H821.853V803.427H819.353ZM809.296 803.427H806.796V805.927H809.296V803.427ZM806.003 765.958L804.168 767.656L804.178 767.668L804.189 767.679L806.003 765.958ZM787.936 765.958L786.123 764.237L786.122 764.238L787.936 765.958ZM784.643 803.427V805.927H787.143V803.427H784.643ZM774.497 803.427H771.997V805.927H774.497V803.427ZM774.497 737.567V735.067H771.997V737.567H774.497ZM784.643 737.567H787.143V735.067H784.643V737.567ZM784.643 760.084H782.143V767.02L786.568 761.679L784.643 760.084ZM791.14 755.278L790.167 752.975L790.158 752.979L790.149 752.983L791.14 755.278ZM799.862 756.087C803.232 756.087 806.13 756.806 808.623 758.18L811.036 753.801C807.715 751.971 803.968 751.087 799.862 751.087V756.087ZM808.642 758.19C811.149 759.544 813.118 761.546 814.561 764.278L818.982 761.943C817.103 758.386 814.444 755.641 811.018 753.791L808.642 758.19ZM814.579 764.31C816.055 767.009 816.853 770.372 816.853 774.502H821.853C821.853 769.733 820.93 765.502 818.965 761.91L814.579 764.31ZM816.853 774.502V803.427H821.853V774.502H816.853ZM819.353 800.927H809.296V805.927H819.353V800.927ZM811.796 803.427V776.015H806.796V803.427H811.796ZM811.796 776.015C811.796 771.229 810.596 767.167 807.816 764.238L804.189 767.679C805.8 769.377 806.796 772.021 806.796 776.015H811.796ZM807.838 764.261C805.086 761.286 801.375 759.898 797.014 759.898V764.898C800.247 764.898 802.529 765.884 804.168 767.656L807.838 764.261ZM797.014 759.898C792.651 759.898 788.926 761.286 786.123 764.237L789.748 767.68C791.454 765.884 793.782 764.898 797.014 764.898V759.898ZM786.122 764.238C783.343 767.167 782.143 771.229 782.143 776.015H787.143C787.143 772.021 788.138 769.377 789.749 767.679L786.122 764.238ZM782.143 776.015V803.427H787.143V776.015H782.143ZM784.643 800.927H774.497V805.927H784.643V800.927ZM776.997 803.427V737.567H771.997V803.427H776.997ZM774.497 740.067H784.643V735.067H774.497V740.067ZM782.143 737.567V760.084H787.143V737.567H782.143ZM786.568 761.679C788.023 759.923 789.862 758.553 792.131 757.574L790.149 752.983C787.196 754.258 784.704 756.092 782.718 758.489L786.568 761.679ZM792.112 757.582C794.449 756.595 797.023 756.087 799.862 756.087V751.087C796.412 751.087 793.17 751.707 790.167 752.975L792.112 757.582ZM901.982 755.99L900.812 758.2L900.821 758.205L900.83 758.209L901.982 755.99ZM909.191 763.11L906.997 764.31L907.006 764.326L907.015 764.342L909.191 763.11ZM911.861 803.427V805.927H914.361V803.427H911.861ZM901.804 803.427H899.304V805.927H901.804V803.427ZM898.511 765.958L896.675 767.656L896.686 767.668L896.697 767.679L898.511 765.958ZM880.444 765.958L878.631 764.237L878.63 764.238L880.444 765.958ZM877.151 803.427V805.927H879.651V803.427H877.151ZM867.094 803.427H864.594V805.927H867.094V803.427ZM863.801 765.958L861.965 767.656L861.976 767.668L861.987 767.679L863.801 765.958ZM845.734 765.958L843.921 764.237L843.92 764.238L845.734 765.958ZM842.441 803.427V805.927H844.941V803.427H842.441ZM832.295 803.427H829.795V805.927H832.295V803.427ZM832.295 754.388V751.888H829.795V754.388H832.295ZM842.441 754.388H844.941V751.888H842.441V754.388ZM842.441 759.995H839.941V766.964L844.37 761.585L842.441 759.995ZM848.76 755.278L849.77 757.565L849.77 757.565L848.76 755.278ZM867.45 756.079L868.635 753.878L868.635 753.878L867.45 756.079ZM874.57 763.288L872.359 764.456L874.631 768.756L876.806 764.406L874.57 763.288ZM881.512 756.257L882.712 758.451L882.727 758.442L882.743 758.433L881.512 756.257ZM891.658 756.087C895.159 756.087 898.19 756.812 900.812 758.2L903.151 753.781C899.721 751.965 895.87 751.087 891.658 751.087V756.087ZM900.83 758.209C903.46 759.575 905.507 761.587 906.997 764.31L911.384 761.91C909.433 758.345 906.674 755.61 903.134 753.772L900.83 758.209ZM907.015 764.342C908.538 767.033 909.361 770.385 909.361 774.502H914.361C914.361 769.72 913.403 765.477 911.366 761.879L907.015 764.342ZM909.361 774.502V803.427H914.361V774.502H909.361ZM911.861 800.927H901.804V805.927H911.861V800.927ZM904.304 803.427V776.015H899.304V803.427H904.304ZM904.304 776.015C904.304 771.229 903.104 767.167 900.324 764.238L896.697 767.679C898.308 769.377 899.304 772.021 899.304 776.015H904.304ZM900.346 764.261C897.594 761.286 893.883 759.898 889.522 759.898V764.898C892.755 764.898 895.036 765.884 896.675 767.656L900.346 764.261ZM889.522 759.898C885.159 759.898 881.434 761.286 878.631 764.237L882.256 767.68C883.962 765.884 886.29 764.898 889.522 764.898V759.898ZM878.63 764.238C875.851 767.167 874.651 771.229 874.651 776.015H879.651C879.651 772.021 880.646 769.377 882.257 767.679L878.63 764.238ZM874.651 776.015V803.427H879.651V776.015H874.651ZM877.151 800.927H867.094V805.927H877.151V800.927ZM869.594 803.427V776.015H864.594V803.427H869.594ZM869.594 776.015C869.594 771.229 868.394 767.167 865.614 764.238L861.987 767.679C863.598 769.377 864.594 772.021 864.594 776.015H869.594ZM865.636 764.261C862.884 761.286 859.173 759.898 854.812 759.898V764.898C858.045 764.898 860.326 765.884 861.965 767.656L865.636 764.261ZM854.812 759.898C850.449 759.898 846.724 761.286 843.921 764.237L847.546 767.68C849.252 765.884 851.58 764.898 854.812 764.898V759.898ZM843.92 764.238C841.141 767.167 839.941 771.229 839.941 776.015H844.941C844.941 772.021 845.936 769.377 847.547 767.679L843.92 764.238ZM839.941 776.015V803.427H844.941V776.015H839.941ZM842.441 800.927H832.295V805.927H842.441V800.927ZM834.795 803.427V754.388H829.795V803.427H834.795ZM832.295 756.888H842.441V751.888H832.295V756.888ZM839.941 754.388V759.995H844.941V754.388H839.941ZM844.37 761.585C845.767 759.888 847.551 758.546 849.77 757.565L847.749 752.992C844.866 754.266 842.437 756.068 840.511 758.406L844.37 761.585ZM849.77 757.565C851.99 756.584 854.373 756.087 856.948 756.087V751.087C853.707 751.087 850.632 751.718 847.749 752.992L849.77 757.565ZM856.948 756.087C860.499 756.087 863.584 756.838 866.264 758.281L868.635 753.878C865.144 751.999 861.228 751.087 856.948 751.087V756.087ZM866.264 758.281C868.906 759.703 870.926 761.743 872.359 764.456L876.78 762.121C874.891 758.544 872.164 755.778 868.635 753.878L866.264 758.281ZM876.806 764.406C878.043 761.933 879.976 759.948 882.712 758.451L880.312 754.064C876.758 756.009 874.063 758.711 872.334 762.17L876.806 764.406ZM882.743 758.433C885.512 756.866 888.469 756.087 891.658 756.087V751.087C887.607 751.087 883.801 752.089 880.28 754.082L882.743 758.433ZM933.493 801.113L932.253 803.284L932.266 803.292L932.279 803.299L933.493 801.113ZM924.682 792.213L922.495 793.425L922.499 793.432L922.503 793.439L924.682 792.213ZM933.76 756.702L932.561 754.509L932.561 754.509L933.76 756.702ZM959.214 756.702L960.414 754.509L960.414 754.509L959.214 756.702ZM968.114 792.124L965.956 790.863L965.956 790.863L968.114 792.124ZM958.858 801.113L960.043 803.315L960.055 803.308L958.858 801.113ZM953.34 793.548L952.155 791.347L952.143 791.354L952.131 791.36L953.34 793.548ZM958.947 787.941L956.777 786.701L956.777 786.701L958.947 787.941ZM959.036 769.874L956.843 771.075L956.85 771.086L956.856 771.098L959.036 769.874ZM939.011 764.267L937.802 762.079L937.79 762.086L937.777 762.093L939.011 764.267ZM933.76 769.874L935.963 771.056L935.969 771.045L935.975 771.034L933.76 769.874ZM935.807 791.145L933.966 792.836L933.984 792.856L934.002 792.875L935.807 791.145ZM946.042 801.728C941.803 801.728 938.044 800.782 934.707 798.928L932.279 803.299C936.419 805.599 941.025 806.728 946.042 806.728V801.728ZM934.734 798.943C931.393 797.034 928.778 794.396 926.861 790.988L922.503 793.439C924.858 797.625 928.117 800.921 932.253 803.284L934.734 798.943ZM926.869 791.002C924.966 787.567 923.978 783.545 923.978 778.863H918.978C918.978 784.269 920.126 789.147 922.495 793.425L926.869 791.002ZM923.978 778.863C923.978 774.259 924.988 770.274 926.944 766.839L922.599 764.366C920.163 768.644 918.978 773.5 918.978 778.863H923.978ZM926.944 766.839C928.916 763.375 931.58 760.744 934.96 758.896L932.561 754.509C928.346 756.814 925.017 760.117 922.599 764.366L926.944 766.839ZM934.96 758.896C938.359 757.037 942.183 756.087 946.487 756.087V751.087C941.416 751.087 936.756 752.215 932.561 754.509L934.96 758.896ZM946.487 756.087C950.791 756.087 954.615 757.037 958.015 758.896L960.414 754.509C956.218 752.215 951.558 751.087 946.487 751.087V756.087ZM958.015 758.896C961.394 760.744 964.058 763.375 966.031 766.839L970.376 764.366C967.957 760.117 964.629 756.814 960.414 754.509L958.015 758.896ZM966.031 766.839C967.986 770.274 968.996 774.259 968.996 778.863H973.996C973.996 773.5 972.811 768.644 970.376 764.366L966.031 766.839ZM968.996 778.863C968.996 783.457 967.962 787.432 965.956 790.863L970.272 793.386C972.776 789.104 973.996 784.238 973.996 778.863H968.996ZM965.956 790.863C963.93 794.327 961.177 797.001 957.661 798.919L960.055 803.308C964.371 800.954 967.789 797.635 970.272 793.386L965.956 790.863ZM957.673 798.912C954.206 800.779 950.346 801.728 946.042 801.728V806.728C951.113 806.728 955.797 805.601 960.043 803.315L957.673 798.912ZM946.042 797.917C949.07 797.917 951.919 797.19 954.549 795.737L952.131 791.36C950.252 792.399 948.236 792.917 946.042 792.917V797.917ZM954.525 795.75C957.289 794.262 959.484 792.041 961.118 789.182L956.777 786.701C955.563 788.826 954.019 790.343 952.155 791.347L954.525 795.75ZM961.118 789.182C962.804 786.231 963.583 782.755 963.583 778.863H958.583C958.583 782.092 957.939 784.668 956.777 786.701L961.118 789.182ZM963.583 778.863C963.583 774.991 962.841 771.547 961.217 768.651L956.856 771.098C957.961 773.067 958.583 775.616 958.583 778.863H963.583ZM961.229 768.674C959.661 765.81 957.528 763.578 954.816 762.079L952.398 766.456C954.196 767.449 955.682 768.955 956.843 771.075L961.229 768.674ZM954.816 762.079C952.186 760.626 949.337 759.898 946.309 759.898V764.898C948.503 764.898 950.519 765.417 952.398 766.456L954.816 762.079ZM946.309 759.898C943.282 759.898 940.432 760.626 937.802 762.079L940.22 766.456C942.1 765.417 944.116 764.898 946.309 764.898V759.898ZM937.777 762.093C935.118 763.603 933.047 765.848 931.546 768.714L935.975 771.034C937.084 768.917 938.514 767.424 940.245 766.442L937.777 762.093ZM931.557 768.692C930.009 771.579 929.302 775.007 929.302 778.863H934.302C934.302 775.6 934.901 773.036 935.963 771.056L931.557 768.692ZM929.302 778.863C929.302 784.555 930.746 789.33 933.966 792.836L937.649 789.454C935.528 787.146 934.302 783.733 934.302 778.863H929.302ZM934.002 792.875C937.223 796.236 941.296 797.917 946.042 797.917V792.917C942.601 792.917 939.85 791.751 937.612 789.416L934.002 792.875ZM981.17 765.602L978.977 764.403L978.969 764.416L978.962 764.43L981.17 765.602ZM989.536 756.791L990.812 758.942L990.822 758.935L989.536 756.791ZM1010.81 755.723L1009.76 757.993L1009.79 758.005L1009.81 758.017L1010.81 755.723ZM1018.28 761.241L1016.33 762.797L1020.78 768.404V761.241H1018.28ZM1018.28 737.567V735.067H1015.78V737.567H1018.28ZM1028.52 737.567H1031.02V735.067H1028.52V737.567ZM1028.52 803.427V805.927H1031.02V803.427H1028.52ZM1018.28 803.427H1015.78V805.927H1018.28V803.427ZM1018.28 796.04H1020.78V788.11L1016.23 794.607L1018.28 796.04ZM1011.34 801.914L1010.19 799.696L1010.18 799.701L1010.17 799.706L1011.34 801.914ZM989.536 801.024L988.208 803.142L988.229 803.155L988.25 803.168L989.536 801.024ZM981.17 791.946L978.948 793.091L978.958 793.112L978.969 793.132L981.17 791.946ZM1016.15 770.052L1013.95 771.253L1013.97 771.273L1013.98 771.293L1016.15 770.052ZM1010.72 764.356L1009.47 766.52L1009.47 766.52L1010.72 764.356ZM996.122 764.356L997.331 766.545L997.353 766.532L997.375 766.52L996.122 764.356ZM990.604 769.963L988.433 768.723L988.429 768.732L988.424 768.74L990.604 769.963ZM990.604 787.585L988.4 788.765L988.41 788.784L988.421 788.804L990.604 787.585ZM996.122 793.459L994.828 795.598L994.86 795.618L994.894 795.637L996.122 793.459ZM1010.72 793.459L1011.97 795.623L1011.97 795.623L1010.72 793.459ZM1016.15 787.763L1013.96 786.545L1013.96 786.554L1013.95 786.563L1016.15 787.763ZM980.644 778.685C980.644 774.11 981.579 770.162 983.378 766.775L978.962 764.43C976.727 768.637 975.644 773.412 975.644 778.685H980.644ZM983.364 766.802C985.239 763.372 987.721 760.775 990.812 758.942L988.261 754.641C984.35 756.961 981.254 760.238 978.977 764.403L983.364 766.802ZM990.822 758.935C993.977 757.043 997.474 756.087 1001.37 756.087V751.087C996.609 751.087 992.216 752.268 988.25 754.648L990.822 758.935ZM1001.37 756.087C1004.19 756.087 1006.98 756.712 1009.76 757.993L1011.85 753.454C1008.46 751.887 1004.96 751.087 1001.37 751.087V756.087ZM1009.81 758.017C1012.64 759.244 1014.78 760.852 1016.33 762.797L1020.24 759.686C1018.11 757.003 1015.26 754.932 1011.8 753.43L1009.81 758.017ZM1020.78 761.241V737.567H1015.78V761.241H1020.78ZM1018.28 740.067H1028.52V735.067H1018.28V740.067ZM1026.02 737.567V803.427H1031.02V737.567H1026.02ZM1028.52 800.927H1018.28V805.927H1028.52V800.927ZM1020.78 803.427V796.04H1015.78V803.427H1020.78ZM1016.23 794.607C1014.84 796.603 1012.85 798.311 1010.19 799.696L1012.49 804.132C1015.76 802.433 1018.41 800.225 1020.33 797.474L1016.23 794.607ZM1010.17 799.706C1007.67 801.03 1004.74 801.728 1001.28 801.728V806.728C1005.43 806.728 1009.19 805.885 1012.51 804.123L1010.17 799.706ZM1001.28 801.728C997.451 801.728 993.982 800.777 990.822 798.881L988.25 803.168C992.21 805.544 996.573 806.728 1001.28 806.728V801.728ZM990.864 798.906C987.753 796.955 985.255 794.26 983.371 790.761L978.969 793.132C981.238 797.346 984.318 800.703 988.208 803.142L990.864 798.906ZM983.393 790.802C981.578 787.28 980.644 783.259 980.644 778.685H975.644C975.644 783.961 976.727 788.781 978.948 793.091L983.393 790.802ZM1020.78 778.863C1020.78 775.124 1019.99 771.744 1018.32 768.812L1013.98 771.293C1015.15 773.345 1015.78 775.838 1015.78 778.863H1020.78ZM1018.34 768.852C1016.78 765.996 1014.66 763.748 1011.97 762.193L1009.47 766.52C1011.29 767.576 1012.79 769.124 1013.95 771.253L1018.34 768.852ZM1011.97 762.193C1009.33 760.667 1006.47 759.898 1003.42 759.898V764.898C1005.59 764.898 1007.59 765.436 1009.47 766.52L1011.97 762.193ZM1003.42 759.898C1000.37 759.898 997.506 760.667 994.869 762.193L997.375 766.52C999.248 765.436 1001.25 764.898 1003.42 764.898V759.898ZM994.913 762.168C992.212 763.661 990.058 765.88 988.433 768.723L992.775 771.204C993.998 769.063 995.523 767.544 997.331 766.545L994.913 762.168ZM988.424 768.74C986.809 771.618 986.057 774.966 986.057 778.685H991.057C991.057 775.641 991.67 773.174 992.784 771.187L988.424 768.74ZM986.057 778.685C986.057 782.409 986.811 785.794 988.4 788.765L992.809 786.406C991.668 784.275 991.057 781.726 991.057 778.685H986.057ZM988.421 788.804C990.033 791.692 992.163 793.985 994.828 795.598L997.417 791.321C995.572 790.204 994.023 788.582 992.787 786.367L988.421 788.804ZM994.894 795.637C997.566 797.145 1000.42 797.917 1003.42 797.917V792.917C1001.32 792.917 999.306 792.385 997.35 791.282L994.894 795.637ZM1003.42 797.917C1006.47 797.917 1009.33 797.149 1011.97 795.623L1009.47 791.296C1007.59 792.38 1005.59 792.917 1003.42 792.917V797.917ZM1011.97 795.623C1014.66 794.068 1016.78 791.819 1018.34 788.964L1013.95 786.563C1012.79 788.691 1011.29 790.24 1009.47 791.296L1011.97 795.623ZM1018.33 788.982C1019.99 786.003 1020.78 782.604 1020.78 778.863H1015.78C1015.78 781.887 1015.15 784.421 1013.96 786.545L1018.33 788.982ZM1097.89 719.411L1100.32 720.002L1101.07 716.911H1097.89V719.411ZM1073.69 819.002V821.502H1075.65L1076.11 819.593L1073.69 819.002ZM1063.72 819.002L1061.29 818.414L1060.54 821.502H1063.72V819.002ZM1087.84 719.411V716.911H1085.87L1085.41 718.823L1087.84 719.411ZM1095.46 718.821L1071.26 818.412L1076.11 819.593L1100.32 720.002L1095.46 718.821ZM1073.69 816.502H1063.72V821.502H1073.69V816.502ZM1066.15 819.591L1090.27 720L1085.41 718.823L1061.29 818.414L1066.15 819.591ZM1087.84 721.911H1097.89V716.911H1087.84V721.911ZM1113.97 751.095V748.595H1107.86L1112.22 752.879L1113.97 751.095ZM1126.79 751.095L1128.55 749.316L1127.82 748.595H1126.79V751.095ZM1147.26 771.298L1149.02 773.078L1150.82 771.298L1149.02 769.519L1147.26 771.298ZM1126.79 791.501V794.001H1127.82L1128.55 793.281L1126.79 791.501ZM1113.97 791.501L1112.22 789.718L1107.86 794.001H1113.97V791.501ZM1134.53 771.298L1136.28 773.082L1138.1 771.298L1136.28 769.515L1134.53 771.298ZM1113.97 753.595H1126.79V748.595H1113.97V753.595ZM1125.03 752.875L1145.5 773.078L1149.02 769.519L1128.55 749.316L1125.03 752.875ZM1145.5 769.519L1125.03 789.722L1128.55 793.281L1149.02 773.078L1145.5 769.519ZM1126.79 789.001H1113.97V794.001H1126.79V789.001ZM1115.73 793.285L1136.28 773.082L1132.78 769.515L1112.22 789.718L1115.73 793.285ZM1136.28 769.515L1115.73 749.312L1112.22 752.879L1132.78 773.082L1136.28 769.515Z" fill="black"/>
</g>
<defs>
<filter id="filter0_bd_203_4" x="0" y="-4" width="1428" height="1092" filterUnits="userSpaceOnUse" color-interpolation-filters="sRGB">
<feFlood flood-opacity="0" result="BackgroundImageFix"/>
<feGaussianBlur in="BackgroundImageFix" stdDeviation="2"/>
<feComposite in2="SourceAlpha" operator="in" result="effect1_backgroundBlur_203_4"/>
<feColorMatrix in="SourceAlpha" type="matrix" values="0 0 0 0 0 0 0 0 0 0 0 0 0 0 0 0 0 0 127 0" result="hardAlpha"/>
<feOffset dy="4"/>
<feGaussianBlur stdDeviation="2"/>
<feComposite in2="hardAlpha" operator="out"/>
<feColorMatrix type="matrix" values="0 0 0 0 0 0 0 0 0 0 0 0 0 0 0 0 0 0 0.25 0"/>
<feBlend mode="normal" in2="effect1_backgroundBlur_203_4" result="effect2_dropShadow_203_4"/>
<feBlend mode="normal" in="SourceGraphic" in2="effect2_dropShadow_203_4" result="shape"/>
</filter>
<filter id="filter1_d_203_4" x="277.22" y="719.411" width="874.039" height="107.591" filterUnits="userSpaceOnUse" color-interpolation-filters="sRGB">
<feFlood flood-opacity="0" result="BackgroundImageFix"/>
<feColorMatrix in="SourceAlpha" type="matrix" values="0 0 0 0 0 0 0 0 0 0 0 0 0 0 0 0 0 0 127 0" result="hardAlpha"/>
<feOffset dy="4"/>
<feGaussianBlur stdDeviation="2"/>
<feComposite in2="hardAlpha" operator="out"/>
<feColorMatrix type="matrix" values="0 0 0 0 0 0 0 0 0 0 0 0 0 0 0 0 0 0 0.25 0"/>
<feBlend mode="normal" in2="BackgroundImageFix" result="effect1_dropShadow_203_4"/>
<feBlend mode="normal" in="SourceGraphic" in2="effect1_dropShadow_203_4" result="shape"/>
</filter>
</defs>
</svg>
